<?xml version="1.0" encoding="UTF-8" standalone="no"?>
<!-- Created with Inkscape (http://www.inkscape.org/) -->

<svg
   width="113.04019mm"
   height="113.04mm"
   viewBox="0 0 113.04019 113.04"
   version="1.1"
   id="svg1"
   xml:space="preserve"
   sodipodi:docname="icon.svg"
   xmlns:inkscape="http://www.inkscape.org/namespaces/inkscape"
   xmlns:sodipodi="http://sodipodi.sourceforge.net/DTD/sodipodi-0.dtd"
   xmlns="http://www.w3.org/2000/svg"
   xmlns:svg="http://www.w3.org/2000/svg"><sodipodi:namedview
     id="namedview1"
     pagecolor="#ffffff"
     bordercolor="#000000"
     borderopacity="0.25"
     inkscape:showpageshadow="2"
     inkscape:pageopacity="0.0"
     inkscape:pagecheckerboard="0"
     inkscape:deskcolor="#d1d1d1"
     inkscape:document-units="mm"
     showgrid="true"><inkscape:page
       x="0"
       y="0"
       width="113.04019"
       height="113.04"
       id="page2"
       margin="0"
       bleed="0" /><sodipodi:guide
       position="0,113.04"
       orientation="0,427.23853"
       id="guide4"
       inkscape:locked="false" /><sodipodi:guide
       position="113.04019,113.04"
       orientation="427.2378,0"
       id="guide5"
       inkscape:locked="false" /><sodipodi:guide
       position="113.04019,6.103516e-07"
       orientation="0,-427.23853"
       id="guide6"
       inkscape:locked="false" /><sodipodi:guide
       position="0,6.103516e-07"
       orientation="-427.2378,0"
       id="guide7"
       inkscape:locked="false" /></sodipodi:namedview><defs
     id="defs1" /><g
     inkscape:label="Layer 1"
     inkscape:groupmode="layer"
     id="layer1"
     transform="translate(-51.295047,-32.710148)"><g
       id="g272"
       transform="translate(3.1456314,-12.473939)"><path
         id="path275"
         style="fill:#fdfd00"
         d="m 93.853099,55.515974 -2.910416,0.324528 -2.910417,0.324528 -0.188102,0.160197 -0.187586,0.160197 -0.407727,5.021399 -0.40721,5.021916 v 0.572574 0.573092 l -4.46381,1.779736 -4.464327,1.779737 -4.633826,-3.871599 -4.633826,-3.871081 h -0.229443 -0.229443 l -2.248442,1.601453 -2.247925,1.601969 -0.08785,0.249597 -0.08785,0.250114 2.667538,5.183146 2.667537,5.18263 v 0.276985 0.276986 l -2.532662,3.155363 -2.532662,3.155363 -0.363802,0.139526 -0.363802,0.139527 -5.504057,-0.56224 -5.504056,-0.562756 -0.781865,-0.05581 -0.781864,-0.05581 -0.989087,2.513541 -0.989087,2.513542 -0.01499,0.160197 -0.01499,0.15968 5.424991,3.147612 5.425509,3.147094 -0.0677,5.953123 -0.06718,5.95313 -5.291667,2.84117 -5.291667,2.84065 -0.22996,0.0801 -0.22996,0.0801 0.733289,2.63498 0.733288,2.6355 0.196371,0.22324 0.19637,0.22376 5.278231,-0.4222 5.278747,-0.42168 h 1.067119 1.067118 l 2.691309,3.5848 2.691825,3.58479 0.145211,0.37879 0.145211,0.37827 -2.80448,5.04 -2.80448,5.04 0.0052,0.19069 0.0052,0.1912 2.390035,1.6707 2.390552,1.67122 0.184485,-0.0837 0.183968,-0.0832 4.673616,-3.52123 4.673617,-3.52123 4.983675,1.90066 4.983675,1.90014 0.07906,0.0682 0.07855,0.0677 0.392741,4.86017 0.393258,4.86017 0.133325,0.84749 0.133325,0.84749 1.643827,0.0935 1.643828,0.0941 2.447395,0.0506 2.447396,0.0501 v -0.67645 -0.67644 l 0.287838,-1.1436 0.288354,-1.1436 0.79375,-0.96325 0.794267,-0.96376 0.836125,-0.43925 0.836123,-0.43925 1.98438,-0.0434 1.98437,-0.0439 1.52807,-0.69039 1.52808,-0.69092 1.16995,-0.83974 1.16944,-0.83974 3.05666,-3.27319 3.05718,-3.27318 v -0.58085 -0.58032 l -0.8723,0.84542 -0.87282,0.84595 h -1.44952 -1.45004 l -0.58808,-0.41186 -0.58808,-0.41186 v -0.7922 -0.79169 l 0.38758,-0.74931 0.38705,-0.74879 0.86972,-0.73432 0.8692,-0.7338 1.32291,-0.61805 1.32292,-0.61754 2.24896,-0.007 2.24896,-0.007 1.80867,-0.38344 1.80816,-0.38292 1.43764,-0.65836 1.43815,-0.65836 2.04536,-1.40146 2.04535,-1.40147 2.44533,-2.35127 2.44481,-2.3518 0.79633,-1.59318 0.79582,-1.59319 v -1.13636 -1.13637 l -0.66301,0.66301 -0.66301,0.66301 -1.12293,0.51005 -1.12292,0.50953 -1.69913,0.006 -1.6986,0.006 -0.48421,-0.4377 -0.48369,-0.43821 v -1.18288 -1.18287 l 0.82166,-1.62057 0.82165,-1.62006 0.87488,-1.19424 0.87437,-1.19373 1.603,-1.5291 1.60249,-1.52859 1.47898,-0.67696 1.47898,-0.676964 1.52342,-0.138493 1.52342,-0.137976 1.43764,0.315226 1.43764,0.315227 2.91041,0.14418 2.91042,0.14469 1.70377,-0.447517 1.70429,-0.447518 1.07384,-0.54622 1.07435,-0.54622 1.5875,-1.056783 1.5875,-1.056783 1.12448,-1.077454 1.12448,-1.07797 v -0.189653 -0.189135 l -1.44849,0.509012 -1.44849,0.509013 -2.18953,-0.0031 -2.18953,-0.0031 -1.42059,-0.378271 -1.42007,-0.377755 -1.42317,-0.72037 -1.42368,-0.719852 -2.92954,-2.720764 -2.92954,-2.720248 -1.12344,-0.544153 -1.12293,-0.543636 h -1.0759 -1.07539 l -1.75752,0.661459 -1.75699,0.661458 h -1.32137 -1.32085 l -0.4284,-0.898136 -0.4284,-0.898137 0.18966,-0.755509 0.18965,-0.754993 1.16427,-1.116211 1.16479,-1.115694 1.50688,-0.438216 1.50637,-0.4377 1.65881,0.132809 1.6583,0.133325 1.66811,0.785482 1.6676,0.785482 1.81333,1.247469 1.81281,1.247469 0.0951,-0.09508 0.0946,-0.09457 -0.58498,-0.967383 -0.58497,-0.967382 -2.33371,-2.526978 -2.33371,-2.526461 -1.15548,-0.794783 -1.15497,-0.794784 -1.67019,-0.442867 -1.67069,-0.442867 -2.91042,-0.0047 -2.91042,-0.0052 -1.45521,0.345198 -1.4552,0.345199 -2.64584,1.226281 -2.64583,1.225765 -1.85208,0.0021 -1.85209,0.0021 -1.62781,-0.618051 -1.62832,-0.61805 -0.55449,-0.516764 -0.555,-0.516764 v -0.553455 -0.553971 l 0.94516,-0.890902 0.94464,-0.891418 1.10588,0.0015 1.10536,0.0015 1.45521,0.235128 1.45521,0.235644 1.03249,-0.171049 1.0325,-0.171049 -0.39171,-0.325044 -0.39171,-0.325045 -1.69912,-0.242363 -1.69912,-0.242362 -1.56838,-0.695565 -1.5689,-0.695565 -1.40508,-1.328601 -1.40508,-1.329117 -0.92036,-0.384473 -0.92036,-0.384473 h -0.75551 -0.7555 l -1.90376,1.218014 -1.90376,1.218013 -0.66301,-0.166398 -0.66353,-0.166398 -0.4563,-0.469222 -0.4563,-0.468705 -0.97824,-1.097608 -0.97875,-1.097607 -1.398883,-0.0801 -1.398364,-0.08061 -2.020548,-5.141805 -2.020032,-5.141288 -0.232544,-0.367419 z"
         inkscape:export-filename="path275.svg"
         inkscape:export-xdpi="96"
         inkscape:export-ydpi="96" /><path
         id="path274"
         style="fill:#8c8c8c"
         d="m 93.853099,55.515974 -2.910416,0.324528 -2.910417,0.325045 -0.188102,0.15968 -0.187586,0.160197 -0.407727,5.021916 -0.40721,5.021399 v 0.573091 0.572575 l -4.46381,1.779736 -4.464327,1.779737 -4.633826,-3.871082 -4.633826,-3.871598 h -0.229443 -0.229443 l -2.248442,1.601969 -2.247925,1.601453 -0.08785,0.249597 -0.08785,0.250114 2.667538,5.183146 2.667537,5.183146 v 0.276469 0.276986 l -2.532662,3.155363 -2.532662,3.155363 -0.363802,0.139526 -0.363802,0.139527 -5.504057,-0.56224 -5.504056,-0.56224 -0.781865,-0.05633 -0.781864,-0.05581 -0.989087,2.513541 -0.989087,2.513542 -0.01499,0.160197 -0.01499,0.15968 5.424991,3.147612 5.425509,3.147094 -0.0677,5.953127 -0.06718,5.95313 -5.291667,2.84117 -5.291667,2.84065 -0.22996,0.0801 -0.22996,0.0801 0.733289,2.63498 0.733288,2.6355 0.196371,0.22324 0.19637,0.22376 5.278231,-0.4222 5.278747,-0.42168 h 1.067119 1.067118 l 2.691309,3.5848 2.691825,3.58531 0.145211,0.37827 0.145211,0.37879 -2.80448,5.03948 -2.80448,5.04 0.0052,0.19069 0.0052,0.1912 2.390035,1.67122 2.390552,1.6707 0.184485,-0.0832 0.183968,-0.0837 4.673616,-3.52123 4.673617,-3.52123 4.983675,1.90066 4.983675,1.90066 0.07906,0.0677 0.07855,0.0677 0.392741,4.86017 0.393258,4.86017 0.133325,0.84749 0.133325,0.84749 1.643827,0.0992 1.643828,0.0992 1.550809,-0.0207 1.550293,-0.0202 1.927531,-5.28289 1.927014,-5.28288 0.638721,-0.17105 0.638721,-0.17053 0.645959,-0.33848 0.64595,-0.33848 2.47375,-1.59422 2.47375,-1.59473 -0.87694,-0.28629 -0.87747,-0.28629 -0.38861,-0.69453 -0.38809,-0.69401 0.46871,-1.22835 0.46922,-1.22783 1.46761,-1.25264 1.46761,-1.25264 2.67632,-2.65048 2.67581,-2.65049 1.49552,-0.74155 1.49551,-0.74156 5.64824,0.0847 5.64823,0.0842 1.47019,-0.7214 1.46968,-0.72192 0.64286,-0.68471 0.64337,-0.68472 -1.45159,0.21601 -1.45159,0.21549 -2.51355,-0.0119 -2.51354,-0.0124 -0.78393,-0.38447 -0.78341,-0.38499 -0.60565,-0.89865 -0.60513,-0.89917 v -0.34468 -0.34417 l 1.52135,-0.0796 1.52136,-0.0796 0.077,-2.03605 0.077,-2.03657 -1.33118,-0.0801 -1.3317,-0.0806 2.27272,-2.72232 2.27273,-2.72283 2.28927,-1.54874 2.28875,-1.54874 0.81494,-0.887809 0.81493,-0.888318 0.97617,-1.365291 0.97617,-1.364775 1.57251,-1.456242 1.57252,-1.455725 0.78445,-0.172082 0.78444,-0.172599 1.54048,0.738973 1.54047,0.738973 2.11667,0.15968 2.11667,0.159163 1.32291,0.818038 1.32292,0.818038 1.45521,0.179317 1.45521,0.179834 -0.26459,-0.259932 -0.26458,-0.259416 -1.04593,-0.334863 -1.04593,-0.334864 -0.82166,-0.871264 -0.82165,-0.871265 -1.24437,-0.313159 -1.24385,-0.313159 -1.86397,-1.671733 -1.86397,-1.671216 -1.17357,-0.448034 -1.17357,-0.448552 -1.04697,0.14056 -1.04696,0.14056 -2.86443,1.331185 -2.86442,1.330668 -1.26504,0.318844 -1.26504,0.318327 -1.31517,-0.155547 -1.31568,-0.156062 -1.58026,-0.842326 -1.58027,-0.841809 v -0.639755 -0.639237 l 1.25677,-0.555522 1.25677,-0.555005 1.00976,-0.667142 1.00924,-0.667143 0.38654,-0.747241 0.38654,-0.747241 h -0.23926 -0.23875 l -0.30127,0.362768 -0.30076,0.362252 -1.61179,0.72347 -1.6123,0.72347 -2.94814,-0.100769 -2.94814,-0.101286 -1.45521,-0.687296 -1.45521,-0.687297 -1.11724,-0.973584 -1.11725,-0.973067 -1.61644,-2.416907 -1.61643,-2.416907 -0.90434,-1.795756 -0.90434,-1.795239 V 75.12645 74.57713 l 0.41445,-0.800468 0.41392,-0.800985 1.37201,-0.63872 1.3715,-0.638721 0.33073,-0.0026 0.33072,-0.0026 v -0.252698 -0.252181 l -0.87643,-0.164847 -0.87591,-0.164331 -1.61696,0.419095 -1.61644,0.419096 -1.54202,0.15813 -1.54203,0.158647 -0.71417,-0.565857 -0.71468,-0.566374 -0.47129,-2.096513 -0.47129,-2.096512 -1.455725,-0.07751 -1.456242,-0.07752 -2.020032,-5.141288 -2.020548,-5.141805 -0.232544,-0.367419 z" /><path
         id="path273"
         style="fill:#fd8100"
         d="m 101.23094,67.755537 -0.46147,3.887101 -0.46147,3.886585 -0.14262,0.926041 -0.14211,0.926042 -3.614254,0.03101 -3.61425,0.03101 -2.38125,0.591695 -2.38125,0.591178 -1.984375,0.812354 -1.984375,0.811837 -1.717725,1.035595 -1.718241,1.036113 -1.808158,1.478463 -1.807642,1.478979 -1.187524,1.342554 -1.187525,1.342553 -1.064534,1.774052 -1.064018,1.774052 0.15968,0.258382 0.160197,0.258383 -0.732255,-0.359152 -0.732255,-0.359668 -2.182813,-0.185518 -2.182812,-0.186035 v 2.018481 2.018482 h 1.131714 1.13223 l 0.587561,0.411861 0.588078,0.411861 v 8.848562 8.84855 h 1.852084 1.852083 l 0.06304,-9.32656 0.06253,-9.326566 0.07286,9.229416 0.07338,9.22889 -0.291972,0.3514 -0.291455,0.3514 1.265556,1.6645 1.265556,1.66398 1.762683,1.75028 1.762683,1.75028 1.644861,1.11725 1.644861,1.11672 1.866036,0.76947 1.866036,0.76946 1.884122,0.5612 1.884123,0.56121 2.249992,0.36535 2.249475,0.36484 2.182812,10e-4 2.182813,0.001 v 5.29891 5.29838 l 0.859897,-0.43925 0.85989,-0.43925 2.47375,-1.59628 2.47375,-1.59629 -0.87694,-0.28629 -0.87747,-0.2868 -0.38861,-0.69402 -0.38809,-0.69401 0.46922,-1.22835 0.46871,-1.22835 1.46761,-1.25263 1.46761,-1.25264 2.67632,-2.64997 2.67633,-2.65048 1.49551,-0.74156 1.49552,-0.74156 5.64823,0.0847 5.64824,0.0842 1.46967,-0.72192 1.46968,-0.72141 0.64699,-0.70538 0.64647,-0.70538 -0.92552,0.18241 -0.92604,0.18242 -2.11719,0.154 -2.11615,0.15348 -1.51205,-0.31471 -1.51205,-0.31523 -0.67128,-0.79737 -0.67076,-0.79736 -0.15968,-0.63666 -0.15968,-0.63717 -7.3148,-0.0744 -7.3148,-0.0744 8.79792,-0.062 8.79687,-0.062 v -1.84795 -1.84795 l -7.60677,-0.0703 -7.60677,-0.0703 -0.0243,-1.25832 -0.0243,-1.25832 0.1049,1.19218 0.10542,1.19217 h 6.28954 6.28954 l 2.3151,-2.78484 2.31511,-2.78484 2.29495,-1.55236 2.29443,-1.55288 0.81494,-0.887805 0.81493,-0.888318 0.97617,-1.364774 0.97617,-1.365291 1.57251,-1.456242 1.57252,-1.455725 0.78445,-0.172083 0.78444,-0.172599 1.54048,0.738973 1.54047,0.738973 2.11667,0.15968 2.11667,0.159163 1.32291,0.818038 1.32292,0.818038 1.45521,0.179317 1.45521,0.179834 -0.26459,-0.259932 -0.26458,-0.259416 -1.04593,-0.334863 -1.04593,-0.334863 -0.82166,-0.871265 -0.82165,-0.871265 -1.24437,-0.313159 -1.24385,-0.313159 -1.86397,-1.671216 -1.86397,-1.671732 -1.17357,-0.448035 -1.17357,-0.448551 -1.04697,0.140559 -1.04696,0.14056 -2.86391,1.331185 -2.86443,1.330668 -1.26504,0.318844 -1.26503,0.318327 -1.31569,-0.155546 -1.31568,-0.156063 -1.58026,-0.841809 -1.58027,-0.842326 V 90.02963 89.390392 l 1.25677,-0.555521 1.25677,-0.555005 1.00976,-0.667143 1.00924,-0.667143 0.38654,-0.747241 0.38654,-0.747241 h -0.23926 -0.23875 l -0.30075,0.362768 -0.30076,0.362252 -1.61231,0.72347 -1.6123,0.72347 -2.94814,-0.100769 -2.94814,-0.101286 -1.45521,-0.687296 -1.45521,-0.687297 -1.11724,-0.973584 -1.11725,-0.973067 -1.61644,-2.416907 -1.61643,-2.416906 -0.90434,-1.795756 -0.90434,-1.79524 v -0.548803 -0.548804 l 0.41445,-0.800985 0.41392,-0.800984 1.37201,-0.638721 1.3715,-0.638721 0.33073,-0.0026 0.33072,-0.0026 v -0.252181 -0.252697 l -0.87591,-0.164331 -0.87643,-0.164848 -1.61696,0.419096 -1.61644,0.419096 -1.54202,0.158646 -1.54203,0.15813 -0.70951,-0.562239 -0.71004,-0.562757 -0.32711,-1.461926 -0.32711,-1.461926 -0.16898,-0.104387 z m -4.346501,23.219255 0.997872,0.104386 0.997872,0.10387 -1.852084,0.0021 -1.852083,0.0026 0.854211,-0.106454 z m -11.873694,0.0067 1.510502,0.0956 1.511019,0.09508 -3.175,-0.001 -3.175,-0.001 1.663981,-0.09405 z m 33.713185,0.144694 -6.68073,0.07751 -6.68073,0.07752 v 1.842781 1.843299 l 6.81303,0.07545 6.81302,0.07493 -6.82129,0.0615 -6.82129,0.06149 -0.13746,-0.358634 -0.13746,-0.358118 0.0796,-1.692403 0.0796,-1.691887 6.74688,-0.0067 z m -38.232289,0.05788 0.176733,0.176217 0.176217,0.176216 h -0.35295 -0.352433 l 0.176216,-0.176216 z m 8.466667,0 0.176733,0.176217 0.176217,0.176216 h -0.35295 -0.352434 l 0.176217,-0.176216 z m 10.847916,0 0.176734,0.176217 0.176212,0.176216 h -0.352946 -0.352433 l 0.176217,-0.176216 z m 20.108336,0.08785 h 0.13229 0.13229 v 0.132292 0.132291 h -0.13229 -0.13229 v -0.132291 z m -40.216669,0.176734 0.176733,0.176216 0.176217,0.176217 h -0.35295 -0.352433 l 0.176216,-0.176217 z m 10.054167,0.08785 h 0.132291 0.132292 v 0.132292 0.132292 h -0.132292 -0.132291 v -0.132292 z m 10.847912,0 h 0.1323 0.13229 v 0.132292 0.132292 h -0.13229 -0.1323 v -0.132292 z m 20.10834,0 h 0.13229 0.13229 v 0.132292 0.132292 h -0.13229 -0.13229 v -0.132292 z m -41.804169,0.264584 h 0.132292 0.132291 v 0.132291 0.132292 h -0.132291 -0.132292 v -0.132292 z m 11.641667,0 h 0.132291 0.132292 v 0.132291 0.132292 h -0.132292 -0.132291 v -0.132292 z m 0.447518,0.182934 0.305407,0.188619 0.305408,0.189136 v 0.116789 0.116272 H 91.487869 91.37108 L 91.182461,92.28944 Z m 30.773314,0.08165 h 0.13229 0.13229 v 0.132292 0.132291 h -0.13229 -0.13229 V 92.19796 Z m -43.656249,0.264583 h 0.132292 0.132291 v 0.132292 0.132292 h -0.132291 -0.132292 v -0.132292 z m -4.7625,0.264584 h 0.132292 0.132291 v 0.132291 0.132292 h -0.132291 -0.132292 v -0.132292 z m 49.212499,0 h 0.13229 0.13229 v 0.132291 0.132292 h -0.13229 -0.13229 v -0.132292 z m -30.559374,0.132291 0.463021,0.363286 0.463021,0.363285 v 0.09974 0.09974 h -0.09974 -0.09973 L 92.364301,93.19016 Z m 9.921874,0.132292 h 0.13229 0.13229 v 0.132292 0.132291 h -0.13229 -0.13229 V 92.99171 Z m -28.310416,0.264583 h 0.132292 0.132292 v 0.132292 0.132292 h -0.132292 -0.132292 v -0.132292 z m 3.471106,0.264584 h 0.132292 0.132292 l -0.163815,0.264583 -0.163297,0.264583 H 76.88876 76.756468 l 0.163298,-0.264583 z m -3.206522,0.176733 0.176733,0.176217 0.176217,0.176216 -0.176217,0.176734 -0.176733,0.176217 v -0.352951 z m 28.310412,0.08785 h 0.1323 0.13229 v 0.132292 0.132291 h -0.13229 -0.1323 V 93.78546 Z m 21.16667,0 h 0.13229 0.13229 v 0.132292 0.132291 h -0.13229 -0.13229 V 93.78546 Z m -46.831249,0.529167 h 0.132292 0.132291 v 0.132291 0.132292 h -0.132291 -0.132292 v -0.132292 z m 47.095829,0 h 0.1323 0.13229 v 0.132291 0.132292 h -0.13229 -0.1323 v -0.132292 z m -30.162496,0.264583 h 0.132292 0.132292 v 0.132292 0.132291 H 93.588516 93.456224 V 94.57921 Z m 9.138456,0.132292 -0.005,9.525 -0.005,9.525 -1.71979,0.0181 -1.719794,0.0181 1.650024,-0.0961 1.65055,-0.0961 0.0744,-9.44697 z m 21.28863,0.04444 0.17673,0.176216 0.17622,0.176217 -0.17622,0.176733 -0.17673,0.176217 v -0.35295 z M 76.258308,94.7115 h 0.132291 0.132292 v 0.132292 0.132292 h -0.132292 -0.132291 v -0.132292 z m 20.372916,0.229444 0.727604,0.110587 0.727605,0.110071 h -1.455209 -1.455208 l 0.727604,-0.110071 z m -12.170833,0.0078 1.389062,0.09715 1.389063,0.09715 h -2.778125 -2.778125 l 1.389062,-0.09715 z m 9.260417,0.02739 h 0.132291 0.132292 v 0.132291 0.132292 h -0.132292 -0.132291 v -0.132292 z m -17.727084,0.176733 0.176734,0.176217 0.176216,0.176216 -0.176216,0.176734 -0.176734,0.176217 V 95.5053 Z m 22.143352,0.0062 0.305407,0.188619 0.305408,0.189136 v 0.116789 0.116272 H 98.631619 98.51483 L 98.326211,95.46444 Z m -17.116268,0.08165 h 0.132291 0.132292 v 0.132292 0.132291 h -0.132292 -0.132291 v -0.132291 z m 6.879166,0 h 0.132292 0.132292 v 0.132292 0.132291 h -0.132292 -0.132292 v -0.132291 z m 31.220836,0 h 0.13229 0.13229 v 0.132292 0.132291 h -0.13229 -0.13229 v -0.132291 z m -38.232294,0.132292 -0.362769,0.463021 -0.363285,0.46302 h -0.09974 -0.100253 v -0.09973 -0.09974 l 0.463021,-0.363285 z m 38.679814,0.05064 0.3054,0.188619 0.30541,0.189135 v 0.116789 0.116272 h -0.11627 -0.11679 l -0.18862,-0.305408 z m -31.139189,0.08165 h 0.132292 0.132291 v 0.132292 0.132292 h -0.132291 -0.132292 v -0.132292 z m 5.55625,0 h 0.132292 0.132291 v 0.132292 0.132292 h -0.132291 -0.132292 v -0.132292 z m 30.204359,0.132292 0.13901,0.347266 0.13901,0.347265 -0.15968,0.160197 -0.1602,0.159681 0.0212,-0.506946 z m -35.231442,0.132292 h 0.132291 0.132292 v 0.132291 0.132292 h -0.132292 -0.132291 v -0.132292 z m 5.291666,0.264583 h 0.132292 0.132292 v 0.132292 0.132291 h -0.132292 -0.132292 v -0.132291 z m 25.929166,0.264583 h 0.13229 0.13229 v 0.132292 0.132292 h -0.13229 -0.13229 v -0.132292 z m -44.408141,0.132292 0.139009,0.347266 0.13901,0.347265 -0.15968,0.160197 -0.160197,0.159681 0.02119,-0.506946 z m 3.926892,0.132292 h 0.132292 0.132291 v 0.132291 0.132292 h -0.132291 -0.132292 v -0.132292 z m 40.807329,0.132291 0.12196,0.468189 0.12195,0.468188 -0.13177,0.325562 -0.13178,0.325561 0.01,-0.79375 z m -25.990662,0.132292 h 0.132291 0.132292 v 0.132292 0.132291 h -0.132292 -0.132291 v -0.132291 z m -4.233334,0.264583 h 0.132292 0.132292 v 0.132292 0.132292 h -0.132292 -0.132292 v -0.132292 z m -10.806058,0.132292 0.139009,0.347266 0.13901,0.347265 -0.15968,0.160197 -0.160197,0.159681 0.02119,-0.506946 z m 11.070642,0.396875 h 0.132291 0.132292 v 0.132292 0.132291 h -0.132292 -0.132291 v -0.132291 z m 4.233333,0.176734 0.176733,0.176216 0.176217,0.176217 -0.176217,0.176733 -0.176733,0.176217 v -0.35295 z m 29.410609,0.220141 0.13384,0.330729 0.13333,0.330729 -0.13333,0.33073 -0.13384,0.330729 v -0.661459 z m -33.379359,0.04444 0.176733,0.176217 0.176217,0.176216 -0.176217,0.176734 -0.176733,0.176216 v -0.35295 z m -11.335225,0.220141 0.133841,0.33073 0.133326,0.330729 -0.133326,0.330729 -0.133841,0.330729 v -0.661458 z m 11.641666,0.529167 0.13901,0.347266 0.139009,0.347265 -0.15968,0.160197 -0.160197,0.159681 0.02119,-0.506946 z m 28.797728,0.132292 h 0.13229 0.13229 v 0.132291 0.132292 h -0.13229 -0.13229 v -0.132292 z m -44.143561,0.132291 0.139009,0.347266 0.13901,0.347266 -0.15968,0.160197 -0.160197,0.159679 0.02119,-0.506945 z m 19.33422,0 0.121957,0.468189 0.121956,0.468189 -0.131775,0.32556 -0.131775,0.32556 0.0098,-0.793748 z m 24.280171,0.132292 h 0.13229 0.13229 v 0.132292 0.132291 h -0.13229 -0.13229 v -0.132291 z m -0.52917,0.264583 h 0.1323 0.13229 v 0.132292 0.132292 h -0.13229 -0.1323 v -0.132292 z m -0.79375,0.176734 0.17674,0.176217 0.17621,0.176212 h -0.35295 -0.35243 l 0.17622,-0.176212 z m -38.364579,0.08785 h 0.132292 0.132291 v 0.132291 0.132288 h -0.132291 -0.132292 v -0.132288 z m 44.185419,0 h 0.13229 0.13229 v 0.132291 0.132288 h -0.13229 -0.13229 v -0.132288 z m -6.87917,0.176733 0.17673,0.176216 0.17622,0.17621 h -0.35295 -0.35243 l 0.17621,-0.17621 z m -1.32292,0.264576 0.17674,0.17622 0.17621,0.17622 h -0.35295 -0.35243 l 0.17622,-0.17622 z m 7.9375,0.0878 h 0.1323 0.13229 v 0.1323 0.13229 h -0.13229 -0.1323 v -0.13229 z m -8.99583,0.17674 0.17673,0.17621 0.17622,0.17622 h -0.35295 -0.35243 l 0.17621,-0.17622 z m -1.05833,0.26458 0.17673,0.17622 0.17622,0.17621 h -0.35295 -0.35244 l 0.17622,-0.17621 z m -37.570836,0.0879 h 0.132292 0.132292 v 0.13229 0.13229 h -0.132292 -0.132292 v -0.13229 z m 4.7625,0 h 0.132292 0.132292 v 0.13229 0.13229 h -0.132292 -0.132292 v -0.13229 z m 42.597916,0 h 0.13229 0.13229 v 0.13229 0.13229 h -0.13229 -0.13229 v -0.13229 z m -31.799092,0.13229 -0.12299,0.19844 -0.123506,0.19844 -4.945435,-0.0517 -4.945434,-0.0517 1.719791,-0.078 1.719792,-0.0775 3.34915,-0.0687 z m 20.951172,0.0444 0.17674,0.17622 0.17621,0.17622 h -0.35295 -0.35243 l 0.17622,-0.17622 z m -1.32291,0.26459 0.17673,0.17621 0.17622,0.17622 h -0.35295 -0.35244 l 0.17622,-0.17622 z m -34.925002,0.0879 h 0.132291 0.132292 v 0.13229 0.13229 h -0.132292 -0.132291 v -0.13229 z m 33.866662,0.17673 0.17674,0.17622 0.17621,0.17621 h -0.35295 -0.35243 l 0.17622,-0.17621 z m -1.05833,0.26458 0.17673,0.17622 0.17622,0.17622 h -0.35295 -0.35243 l 0.17621,-0.17622 z m -32.543749,0.0879 h 0.132292 0.132291 v 0.1323 0.13229 h -0.132291 -0.132292 v -0.13229 z m 31.485419,0.26459 h 0.13229 0.13229 v 0.13229 0.13229 h -0.13229 -0.13229 v -0.13229 z m 14.05444,0 h 0.13229 0.13229 l -0.16381,0.26458 -0.1633,0.26458 h -0.13229 -0.13229 l 0.16329,-0.26458 z m -14.58361,0.26458 h 0.13229 0.13229 v 0.13229 0.13229 h -0.13229 -0.13229 v -0.13229 z m -30.508731,0.18294 0.305408,0.18861 0.305407,0.18914 v 0.11679 0.11627 h -0.116272 -0.116788 l -0.188619,-0.30541 z m 29.979561,0.0816 h 0.1323 0.13229 v 0.1323 0.13229 h -0.13229 -0.1323 v -0.13229 z m 14.2875,0 h 0.1323 0.13229 v 0.1323 0.13229 h -0.13229 -0.1323 v -0.13229 z m -14.72416,0.26459 h 0.13229 0.13229 l -0.62167,0.66146 -0.62115,0.66145 h -0.13229 -0.13229 l 0.62115,-0.66145 z m 14.195,0 h 0.13229 0.13229 v 0.13229 0.13229 h -0.13229 -0.13229 v -0.13229 z m -0.79375,0.17673 0.17673,0.17622 0.17622,0.17621 h -0.35295 -0.35244 l 0.17622,-0.17621 z m -24.809341,0.22014 0.121957,0.46819 0.121956,0.46819 -0.131775,0.32556 -0.131775,0.32556 0.0098,-0.79375 z m 24.048661,0.0775 0.1602,0.15968 0.15968,0.15968 -0.50695,-0.0207 -0.50746,-0.0207 0.34726,-0.13901 z m -41.043489,0.0548 h 0.132292 0.132291 v 0.1323 0.13229 h -0.132291 -0.132292 v -0.13229 z m 0.79375,0.17674 0.176733,0.17621 0.176217,0.17622 h -0.35295 -0.352433 l 0.176216,-0.17622 z m 38.893749,0 0.17673,0.17621 0.17622,0.17622 h -0.35295 -0.35243 l 0.17621,-0.17622 z m -38.099999,0.26458 0.176733,0.17622 0.176217,0.17621 h -0.35295 -0.352433 l 0.176216,-0.17621 z m 37.041669,0 0.17673,0.17622 0.17622,0.17621 h -0.35295 -0.35244 l 0.17622,-0.17621 z m -1.32292,0.26458 0.17673,0.17622 0.17622,0.17622 h -0.35295 -0.35243 l 0.17621,-0.17622 z m -29.075744,0.0692 2.565735,0.0863 2.565218,0.0863 -5.291666,-5.2e-4 -5.291667,-5.1e-4 2.726449,-0.0858 z m 28.017414,0.19534 0.17673,0.17621 0.17622,0.17622 h -0.35295 -0.35244 l 0.17622,-0.17622 z m -9.26042,0.0878 h 0.13229 0.13229 v 0.13229 0.13229 h -0.13229 -0.13229 v -0.13229 z m -14.022916,0.17673 0.176734,0.17622 0.176216,0.17621 -0.176216,0.17674 -0.176734,0.17621 v -0.35295 z m 22.224996,0 0.17674,0.17622 0.17621,0.17621 h -0.35295 -0.35243 l 0.17622,-0.17621 z m -8.46666,0.26458 0.17673,0.17622 0.17622,0.17622 -0.17622,0.17673 -0.17673,0.17622 v -0.35295 z m 7.14375,0 0.17673,0.17622 0.17622,0.17622 h -0.35295 -0.35244 l 0.17622,-0.17622 z m -1.05834,0.26459 0.17674,0.17621 0.17621,0.17622 h -0.35295 -0.35243 l 0.17622,-0.17622 z m -1.05833,0.26458 0.17673,0.17622 0.17622,0.17621 h -0.35295 -0.35243 l 0.17621,-0.17621 z m -0.39687,0.22014 -0.36277,0.46302 -0.36329,0.46302 h -0.0997 -0.10026 v -0.0997 -0.0997 l 0.46303,-0.36328 z m -18.653129,0.0444 0.176733,0.17622 0.176217,0.17622 -0.176217,0.17673 -0.176733,0.17622 v -0.35295 z m 3.96875,0 0.176733,0.17622 0.176217,0.17622 -0.176217,0.17673 -0.176733,0.17622 v -0.35295 z m 9.831439,0.22015 0.13901,0.34726 0.13901,0.34727 -0.15968,0.16019 -0.1602,0.15968 0.0212,-0.50694 z m -14.064772,0.66145 h 0.132291 0.132292 v 0.1323 0.13229 h -0.132292 -0.132291 v -0.13229 z m 3.96875,0.17674 0.176733,0.17621 0.176217,0.17622 -0.176217,0.17673 -0.176733,0.17622 v -0.35295 z m -4.233334,0.35243 h 0.132292 0.132292 v 0.13229 0.13229 h -0.132292 -0.132292 v -0.13229 z m 3.96875,0.52917 h 0.132292 0.132292 v 0.13229 0.13229 h -0.132292 -0.132292 v -0.13229 z m -4.466394,0.26458 h 0.132292 0.132292 l -0.163815,0.26458 -0.163297,0.26459 H 89.58876 89.456468 l 0.163298,-0.26459 z m 4.201811,0.52917 h 0.132292 0.132291 v 0.13229 0.13229 h -0.132291 -0.132292 v -0.13229 z m -5.291667,0.26458 h 0.132292 0.132292 v 0.13229 0.13229 h -0.132292 -0.132292 v -0.13229 z m -0.529166,0.26458 h 0.132291 0.132292 v 0.1323 0.13229 h -0.132292 -0.132291 v -0.13229 z m 5.55625,0 h 0.132291 0.132292 v 0.1323 0.13229 h -0.132292 -0.132291 v -0.13229 z m -6.085417,0.17674 0.176733,0.17621 0.176217,0.17622 h -0.35295 -0.352433 l 0.176216,-0.17622 z m -9.525,0.35243 4.299479,0.0589 4.299479,0.0589 -4.167187,0.0801 -4.167188,0.0801 v 1.83813 1.83813 l 3.770313,0.0811 3.770312,0.0816 -3.72587,0.0584 -3.726388,0.0579 -0.176217,-0.17621 -0.176733,-0.17622 v -1.94045 z m 15.08125,0.26458 h 0.132292 0.132291 v 0.1323 0.13229 h -0.132291 -0.132292 v -0.13229 z m -0.447001,0.79375 h 0.132291 0.132292 l -0.47904,0.52917 -0.478524,0.52917 h -0.132292 -0.132291 l 0.478523,-0.52917 z m -1.669666,1.32292 h 0.132292 0.132292 v 0.13229 0.13229 h -0.132292 -0.132292 v -0.13229 z m -0.79375,0.52917 h 0.132292 0.132292 v 0.13229 0.13229 h -0.132292 -0.132292 v -0.13229 z m 14.287496,0 h 0.1323 0.13229 v 0.13229 0.13229 h -0.13229 -0.1323 v -0.13229 z m -15.081246,0.26458 h 0.132292 0.132292 v 0.13229 0.13229 h -0.132292 -0.132292 v -0.13229 z m -0.529166,0.17673 0.176733,0.17622 0.176217,0.17622 h -0.35295 -0.352434 l 0.176217,-0.17622 z m 15.875002,0.0879 h 0.13229 0.13229 v 0.1323 0.13229 h -0.13229 -0.13229 v -0.13229 z m -16.900263,0.20981 0.160197,0.15968 0.15968,0.15968 -0.506945,-0.0207 -0.507463,-0.0207 0.347266,-0.13901 z" /><path
         id="path272"
         style="fill:#0492da"
         d="m 66.997891,90.939135 v 2.018481 2.018482 h 1.131714 1.13223 l 0.587561,0.411861 0.588078,0.411861 v 8.84856 8.84855 h 1.852084 1.852083 l -0.0057,-9.59114 -0.0057,-9.591151 -0.489892,-1.07797 -0.489893,-1.078487 -0.893486,-0.421163 -0.893485,-0.42168 -2.182813,-0.188102 z m 28.310417,0.269751 v 1.883606 1.883606 h 1.208195 1.208195 l 0.511596,0.273885 0.511597,0.273885 v 8.986532 8.98653 h 1.852079 1.85209 v -9.66556 -9.666075 l -0.37466,-0.896587 -0.37465,-0.897102 -0.72192,-0.47284 -0.72192,-0.473356 -2.475301,-0.108004 z m -14.220838,0.06304 -1.108976,0.391707 -1.108976,0.391191 -0.760161,0.541052 -0.759643,0.541053 -0.730705,1.493448 -0.730705,1.493449 0.0057,2.138371 0.0062,2.137853 0.54777,1.05833 0.54777,1.05833 0.504362,0.45631 0.504362,0.45578 1.144633,0.40412 1.144633,0.40358 h 5.552633 5.552116 l -0.181385,0.99219 -0.181384,0.99219 -0.615983,1.06143 -0.615466,1.06092 -1.150318,0.65784 -1.150834,0.65733 -4.564062,0.0935 -4.564063,0.0935 v 1.85054 1.85053 l 4.960938,-0.11317 4.960937,-0.11317 1.32085,-0.4873 1.320849,-0.48731 1.350306,-1.35082 1.350822,-1.35031 0.58601,-1.56631 0.586011,-1.5658 0.275435,-2.25412 0.275953,-2.25413 -0.306442,-2.389004 -0.306441,-2.388485 -0.68988,-1.537373 -0.689881,-1.537374 -1.18649,-1.044381 -1.185975,-1.043864 -1.332218,-0.395841 -1.332218,-0.395842 h -3.623035 z m 24.275,0 v 1.852083 1.852084 h 6.62802 6.62751 l 0.72915,0.377238 0.72915,0.377238 0.31626,0.693497 0.31575,0.694015 v 0.371553 0.372071 l -0.30386,0.667143 -0.30386,0.667142 -1.0852,0.396359 -1.08521,0.396875 -4.7625,1.099156 -4.7625,1.09915 -0.9586,0.4837 -0.95911,0.48369 -0.67128,0.79788 -0.67076,0.79737 -0.28835,1.3441 -0.28836,1.34359 v 2.44171 2.4412 l 0.41187,0.58807 0.41186,0.58808 h 9.11314 9.1121 v -1.84795 -1.84795 l -7.60677,-0.0703 -7.60677,-0.0703 0.007,-1.51825 0.007,-1.51824 0.42788,-0.4279 0.42788,-0.42788 5.8229,-1.37459 5.8229,-1.37408 1.08004,-0.71468 1.07952,-0.71469 0.57568,-1.12396 0.57619,-1.124472 0.01,-1.852084 0.01,-1.852083 -0.54881,-1.219047 -0.54932,-1.219564 -0.89142,-0.661975 -0.89141,-0.662492 -0.89917,-0.301273 -0.89917,-0.301274 h -7.10448 z m -23.299866,3.704167 2.323373,0.0016 2.323372,0.0015 0.984436,0.273369 0.98392,0.273368 0.841809,0.708484 0.842326,0.708484 0.467154,1.067118 0.467155,1.067118 0.08733,1.058326 0.08733,1.05834 -4.894275,0.0527 -4.894275,0.0522 -0.558622,-0.22893 -0.558623,-0.22892 -0.565856,-0.71882 -0.565857,-0.719334 v -0.898653 -0.89917 l 0.387573,-0.927075 0.387573,-0.927075 0.927075,-0.387057 z" /></g></g></svg>
